/* XPM */
static char *_e2f5018b3ba4dd6fd7363a41495dd08JtfP5Q1pmMfssF0k[] = {
/* columns rows colors chars-per-pixel */
"64 64 104 2 ",
"   c #2F251C",
".  c #2F281E",
"X  c #31271E",
"o  c #32281F",
"O  c #352B22",
"+  c #382F25",
"@  c #373026",
"#  c #3A3027",
"$  c #3D332A",
"%  c #3F3A30",
"&  c #41372D",
"*  c #42382F",
"=  c #403731",
"-  c #463C33",
";  c #483E35",
":  c #453D38",
">  c #474036",
",  c #4A4037",
"<  c #46403A",
"1  c #4C433A",
"2  c #4F483E",
"3  c #50463D",
"4  c #52483F",
"5  c #4E4741",
"6  c #4E4841",
"7  c #554C43",
"8  c #594F46",
"9  c #564E48",
"0  c #575147",
"q  c #5A5047",
"w  c #56514B",
"e  c #5D544B",
"r  c #5F584E",
"t  c #5C5853",
"y  c #60564D",
"u  c #61584F",
"i  c #645B52",
"p  c #685F55",
"a  c #665E59",
"s  c #676056",
"d  c #696056",
"f  c #696057",
"g  c #696258",
"h  c #6B6258",
"j  c #6A6359",
"k  c #6D6359",
"l  c #6D6459",
"z  c #6E655A",
"x  c #6A625C",
"c  c #6C645E",
"v  c #6F685E",
"b  c #70675D",
"n  c #70675E",
"m  c #72695E",
"M  c #696561",
"N  c #6E6761",
"B  c #6F6B60",
"V  c #736960",
"C  c #746B61",
"Z  c #756B62",
"A  c #756C62",
"S  c #746D63",
"D  c #766C63",
"F  c #776D63",
"G  c #776E63",
"H  c #746C66",
"J  c #786F64",
"K  c #786E65",
"L  c #797065",
"P  c #797268",
"I  c #7C736A",
"U  c #7B736D",
"Y  c #7C746E",
"T  c #7F786E",
"R  c #7E7570",
"E  c #80776D",
"W  c #81786F",
"Q  c #82796E",
"!  c #837970",
"~  c #817A70",
"^  c #817973",
"/  c #847B70",
"(  c #857B71",
")  c #857C73",
"_  c #867D72",
"`  c #887E74",
"'  c #887E75",
"]  c #897F76",
"[  c #878076",
"{  c #888075",
"}  c #898077",
"|  c #8C8379",
" . c #8D847B",
".. c #8F887E",
"X. c #90867D",
"o. c #92887F",
"O. c #8E8680",
"+. c #918983",
"@. c #958C83",
"#. c #988F85",
"$. c #999085",
"%. c #9A9086",
"&. c #9A9289",
"*. c #A09892",
/* pixels */
"M t 7 1 * 4 8 p n n n d h e 7 9 4 ; ; F Y Q Q ~ ~ ~ U N l l l h i w 4 = = = 1 7 h ^ +.*.O.R ~ R a 9 > = > * 4 0 7 7 8 7 7 7 7 w ",
"w 5 % @ o & ; 4 q 8 q q 8 3 ; = * @ O u x V n n m c d i y y y q 7 - $ o O + , 7 d ( ] ..~ V D F i q = $ O o * 1 > , , , < 1 ; > ",
"< $ . O   & ; ; ; ; ; ; , - ; O o o X , > q i y y y y y y y 4 1 & o o o @ - q D ( $.] J D V J F F D q ; @   & > , , > - , , ; , ",
"< = @ O   & ; ; ; ; ; ; , * & O X # # * < 7 0 q q y y y u y 4 * @ o o $ - q d ( ( | Q V F J V l v l 7 7 $ . $ & * , > - $ & $ $ ",
"1 ; - & X & - - > > > > - @ X o o * - , ; ; ; ; , y u u q , * o X X @ - q F Q $.] m L F J F p y y y e y * o . o * > > , @   o X ",
"= = & O   & & & $ $ $ $ $ O o X O & ; , ; ; - ; , 4 4 4 4 > * o   o @ ; q F P [ Q F m h d p i y r r r y $ o o o # $ # $ o o o X ",
"+ O X X       o     X X X X o X O - ; ; ; ; ; ; > - , - > > * o X X + ; 0 C F m F J p y u y y y q u y y *   o X o o o X X X X X ",
"% % $ & & o   o   $ % & $ % & o X + & - ; - ; - > - - , > > - & # X + ; 2 e i j p p i y y y y y y y 7 4 $   o . @ % $ % & $ $ % ",
"; - - - ; & X X o * - ; ; - ; o   X O & ; ; - - ; ; ; ; ; ; ; - * o + , - ; 4 y y y y y y y y y y e 3 ; O X X O * > 1 - - ; - , ",
"y 4 - & + O X + & > , y p 3 - + X O X + + & + & + $ + + # # # + @ X X + & ; ; 3 7 y y y y y 8 ; 3 7 ; ; + X $ * - > i l E E l p ",
"i 7 - & X X X * - - , p m 4 ; o X X X X X X   X O X X X O X X X o o o X + ; ; - 4 y e y y y 7 - ; ; - - + O * ; , , l L o.#.I F ",
"i e y - X X o 7 l L Q E J 4 ; ; = O X X X X O & - & - = - = - - * * $ X X O & - ; 4 ; 3 4 ; ; - ; ; & O O X & ; u l { X.Q I D F ",
"y u y ; X X X 8 m ] o.J F 7 1 ; ; + O O X O O - - 3 ; 3 1 1 ; ; 1 2 - X X X $ - - ; - ; ; - ; ; - - + X X O - 3 n I X.+.P F V F ",
"u y y 5 & & X - 3 p E i y y q y y ; - - - - - ; ; n n n n n n n n v y - & X X O & ; ; ; ; - ; ; & X X X & ; i n | o.n d u u u u ",
"u y y 7 ; + o * ; i n i 8 8 y q e ; ; ; - 3 3 7 8 D J J J J F V n n p 1 * O X X + - - ; ; ; - - + X X O $ ; p J ] X.d u u e y r ",
"u 8 ; - ; & o * ; ; 3 q y y 8 3 ; ; ; ; ; k J X.@.@.#.#.X.J n i y y y y 7 - & X X O & - ; ; & X X X & ; ; 1 p J p i y e y e y r ",
"y 5 ; ; - + X # = - ; 7 y 8 7 ; - - * ; ; p n X.X.X.X.| ` m p y y y y y 8 ; $ X X X @ = * = # X O X & - - 1 u h y q y y y y y y ",
": ; ; # X O X X X & - ; ; - - - - + O * - 3 3 m F F V u y i y y y y y i 8 ; $   X X X o o O     X X * - ; ; ; ; - ; q y y y y y ",
"1 - = # O # & + X & - - ; ; - * & X X & - ; ; p p n n i y y y y y y y 8 4 ; & X X X X X O + $ + + + & & * * - ; ; - 7 8 8 8 8 8 ",
"5 $ X X X ; y - X X X & ; ; ; + X X X X X - ; ; 3 q y y e y y y y y 8 ; ; ; & X X X o o $ , ; ; - - # X X X & 1 - ; ; ; ; ; ; ; ",
": $ X $ - i J q - + X $ & & $ O X X X X O & & * ; 8 8 7 8 8 7 8 7 7 7 ; - 1 & X O $ $ + $ ; 7 q 3 ; * $ O X $ & - - ; ; ; ; ; ; ",
"5 $ X ; i Q %.D y & X X O X X X X X X   X X X - - ; ; ; ; ; - ; - ; ; ; ; - & X $ - - - ; ; e F y ; - = +   X o - ; ; - ; ; - ; ",
"= + X - 7 p V y 7 = & X X X X $ & # & & + O X & $ $ & ; - - ; ; - & & & $ $ & & * 1 7 y i i J } n y r i < $ O X + $ $ $ $ $ & $ ",
"O X X & ; - ; - - ; ; + X O o * ; ; ; ; - X X X X X O - ; ; ; - & X X X X X + ; - - y F V D } $.( F F F 8 - @ o X X X X X X X X ",
"+ O   O $ @ @ * - * $ O o $ & - ; e p i u * % $ $ o o $ $ + + $ O X + & & X # - - - 7 q p F P ( V p p i e 7 - & O X X X X X X X ",
"O O O   . o o * - @ X X o $ ; ; 3 p F V v 2 > > * o o . X X X X X X # ; & X & ; ; ; ; - e F V V p y e y e y 3 ; O X X X O X X X ",
"- = = - = @ o O + o X $ - e d U T P F D S j s 0 3 % * o X X O * * * 3 p e - - ; ; ; ; - 2 8 e p u u y y 3 3 ; ; O O & - & & - - ",
"7 1 ; ; > $ o o o o X & , h L ..@.R V V v F v r y , * o X   + ; ; ; 8 F p ; ; - ; ; ; ; ; - 7 y e e e e 3 ; ; ; + X & - 1 ; 1 ; ",
" .U c l j 7 = * * + X & - p F P P P S s i t s e y , - o X o o - 7 k J ..E q 7 ; & O & ; ; ; 1 3 1 1 1 1 ; ; $ O & - - , i h h h ",
"&.) V H C e > ; ; + X - - p m F B V v i r w 0 e q , * X X o + 3 8 J W @.E y 7 ; & X + - - - - - - ; - - - - O X & ; 1 5 h J D J ",
"U J D h r r e 2 - $ X & ; 3 1 e i r r r e 1 > > , , , - * , 3 b J @.' i i y 8 ; & X X O O O & ; ; - ; - + O X X * ; p V J D D V ",
"H N V h r e w 2 - + X & - ; ; 8 e w e e 0 1 > > > * * - , * 1 m W X.Q y y e 7 - & X X X X X $ - - - * - + X & & 1 3 M D D J V V ",
"i y u r e 4 , ; - $ X * ; 1 - - < < ; ; : - ; ; = + + ; ; ; ; e y y y y 8 ; ; ; & X   X X X o O o O o O o o u V m m V L F F i u ",
"e e q 0 0 4 - ; - + o $ * , ; , , ; ; - - ; ; ; - O X = ; ; ; 4 q e 8 e 8 - ; = @ X   X O + O + O + o   o o e d h h F D m c i u ",
"< < - , > , - , ; + X o X = ; ; ; - ; ; ; ; ; ; - O X X + ; ; ; = - ; ; - - * O X X X X $ ; - ; - - @ o o o * , 1 ; c D i y r r ",
"1 1 , , , * & * & + o X X $ & ; ; ; ; ; - - - & & O X X X & = ; - - - - - & & X O + + + $ ; 2 7 1 - % @ . o * , > ; y p y y 8 q ",
"; ; ; - ; $ o o X X X X X O O & ; ; ; ; - ; & O X   X X   X + ; ; - & - & X X X @ ; ; - < = t P e > % ; @ O * , - ; ; ; 8 y 1 ; ",
"= & & $ $ + o O $ $ $ $ $ O   $ $ & $ $ & & & X X X O X     X & & & & & + X O & * ; 2 e s h v D i 0 0 7 = + $ * ; ; ; 3 4 7 ; - ",
"O o X o X X X & ; ; - - - @ X X o X X X   X     X   X X         X X X   X X + - - ; r P { $.) D F C s r 2 > @   * ; ; ; - - ; ; ",
"O o o X X + $ 8 u n m p y - $ O X X X o X   X & & & & & & & & +   O O   + & & - 7 i V { Q [ Y D v s i r 2 > @   * ; ; - ; - & & ",
"O X     O & ; i V ..#.E D 7 - O X X X   X o O - ; ; ; ; ; ; = o   X X X & ; & ; e J ( #.) D D V s r e e 3 ; + X = ; ; - - - O X ",
"= #   O X 5 p E ..( ~ J J e 8 - * $ & o o $ * - ; y k p y ; ; & & & & & 3 p p u E ] ] ( V p i a r r 7 2 ; ; + X + + & + + + o o ",
"5 $ O X X q m { #.T D V V i u 1 ; ; - + X * ; 1 3 V V E k ; ; ; ; ; ; - 8 V V k E X.( V p y y y e e 2 ; ; - +   X X X X o o o o ",
"e 1 = $ O ; 7 q u c V p p t r 2 ; ; ; = * - 3 i V ] ( k E p p 8 e 8 7 ; ; 7 y E D E n i y y e e 6 2 ; ; ; - + X X o o O * * & - ",
"i 8 , $   $ < > ; p n p y y y 3 - - - ; ; ; 3 n V o.o.E k E n y y y 8 ; - - 8 F D V p y y y u y 6 ; ; - ; - + X X X X O ; ; ; ; ",
"i e e -   $ ; , - 3 3 3 ; ; ; ; - & O - ; ; 3 n E E E y y y i y e ; - O & ; ; ; 8 i y e e y 8 ; , > $ O O O o X X X & ; p n n n ",
"i e e - X $ - - ; ; ; ; ; ; - ; ; O X - - - 1 p E k k i y e u y 8 ; & X O - - ; 3 e e y e q 5 ; - - + . O O O O o X - ; p n m V ",
"u 7 1 & X O O & ; ; ; ; ; ; ; ; - + X X + - - 3 ; 3 ; ; ; q e ; ; ; & O X O & ; ; ; ; ; ; ; ; ; $ O o o & - - - + o * - 3 3 u u ",
"r 7 - $ X X X $ - = - * - - = - & O X X O & - ; ; - ; ; ; y 8 ; - - & X   X & - ; ; ; ; - - - = $ X O + - 4 4 4 & O * - ; ; 8 q ",
"1 ; ; # X X X X X o X X X X O X X   X   X X O ; ; ; ; ; ; ; ; ; & X   X       X & ; ; ; & X X X X X & - i F V V 4 - O O - ; ; ; ",
": - = # X O O + & ; 7 ; & & & O       & & X O & & & & ; ; ; - = & X   O O O X   O & - = O X O O O O 7 y p n n n 7 ; + X & & ; ; ",
"1 $ O O o * ; 7 y ] @.V y 8 y $       - & o   o     & ; ; ; * o X X & ; ; ; & X o o o X X X & ; ; - I #.n y 8 y y y & X X O * ; ",
"- $   # - - ; 7 8 n P u 7 8 8 + X & & - = & + & &   O & & & &   X & & 8 y p 8 & & & & o + & ; 8 8 8 n E n y y y e e + X X O & & ",
"O O O 1 y 5 - ; ; ; ; - ; - ; O O & & - - ; ; ; * X X o X X     & & 7 V ( $.E - ; - ; * - ; e V V J p 8 y y y e e e & X X X o X ",
"O + # ; 8 - $ $ & $ & & $ & $ o   = ; 8 y n n y e ; ; ; * X o & ; y k ] ] ] V 4 ; - & & 3 e F ( D k i e e y 7 7 7 4 + X O X X X ",
"o $ : : ; $ X X X X o X X o o X & - ; p E @.@.E V u y u 7 O & = 7 V E #.] V m y q * &   3 E ] @.D y y y y e 3 - - ; + X X X X X ",
"O + @ $ $ O X $ $ $ & & & $ $ X X = ; 8 y p p y q 4 3 3 ; X + - ; y p ( E p i y 7 ; &   ; q k E p y y y 8 ; & & & + & & & & & & ",
"O O X     O   * ; ; ; ; ; ; ; + O & ; ; ; ; ; - ; ; ; = ; O O - ; ; 7 V p y e y 4 ; &   & ; 8 y y y y y 3 ; O   X X & ; - ; - - ",
"= = % + o $ $ q p J E n p 3 - +   + O & & + & O & + & + O X X & O $ & 8 8 ; 1 3 ; ; & X & ; ; ; ; 3 ; 8 ; ; O X & - V ( E E k p ",
"2 , ; $ O $ ; d I | #.E D 7 ; + O               X X X X X X X X O X + & ; ; ; ; ; - & X & & ; ; ; ; - ; ; - & O * ; ] &.@.@.E V ",
"e q q ; X 7 c Q ..Q T l i e q 7 3 &     O - & = = ; ; ; ; = ; ; & X X O & ; ; ; & O O X & ; ; ; ; ; & O + + & = y p ] @.V n p i ",
"i e i <   q m [ @.T m s y y y y 8 &   X O ; ; 3 ; ; ; ; ; ; ; ; - X O   + = = ; & X X o & ; = ; - ; &   X   & ; p E ] @.p q y y ",
"i y y ;   ; 6 s P h u r e e e 3 ; & X = ; k n ( ( k n V l V k e 7 & & X X O + + O X       X X O O O       O ; ; ; 7 8 8 ; 3 ; ; ",
"i u i 2 + % 1 s P h t i i i u 4 : + & : 3 D E @.@.E E E V E V p y ; ; + + O + O O O X & O O & O O X & O O & ; ; ; ; ; ; 7 ; 7 ; "
};
